<svg t="1678075829838" class="icon" viewBox="0 0 1024 1024" version="1.1" xmlns="http://www.w3.org/2000/svg" p-id="26127" width="200" height="200"><path d="M339.5584 144.0256h-136.704A85.9136 85.9136 0 0 0 117.0432 229.888v136.6528a85.9648 85.9648 0 0 0 85.8112 85.8624h136.704a85.9648 85.9648 0 0 0 85.8112-85.8624V229.888a85.9136 85.9136 0 0 0-85.8112-85.8624z m29.4912 222.5152a29.5424 29.5424 0 0 1-29.4912 29.5424h-136.704a29.5424 29.5424 0 0 1-29.4912-29.5424V229.888a29.5424 29.5424 0 0 1 29.4912-29.5424h136.704a29.5424 29.5424 0 0 1 29.4912 29.5424zM876.2368 168.448H540.16a28.16 28.16 0 0 0 0 56.32h336.0768a28.16 28.16 0 0 0 0-56.32zM876.2368 376.5248H540.16a28.16 28.16 0 0 0 0 56.32h336.0768a28.16 28.16 0 0 0 0-56.32zM339.5584 566.5792h-136.704a85.9648 85.9648 0 0 0-85.8112 85.8624v136.6528a85.9136 85.9136 0 0 0 85.8112 85.8624h136.704a85.9136 85.9136 0 0 0 85.8112-85.8624v-136.6528a85.9648 85.9648 0 0 0-85.8112-85.8624z m29.4912 222.5152a29.5424 29.5424 0 0 1-29.4912 29.5424h-136.704a29.5424 29.5424 0 0 1-29.4912-29.5424v-136.6528a29.5424 29.5424 0 0 1 29.4912-29.5424h136.704a29.5424 29.5424 0 0 1 29.4912 29.5424zM876.2368 591.0528H540.16a28.16 28.16 0 0 0 0 56.32h336.0768a28.16 28.16 0 0 0 0-56.32zM876.2368 799.0784H540.16a28.16 28.16 0 0 0 0 56.32h336.0768a28.16 28.16 0 0 0 0-56.32z" fill="#231F20" p-id="26128"></path></svg>